<svg xmlns="http://www.w3.org/2000/svg" width="16.442" height="16.903" viewBox="0 0 16.442 16.903"><defs><style>.a{fill:#fff;}</style></defs><g transform="translate(-6.973)"><g transform="translate(6.972 0)"><path class="a" d="M47.689,51.414a.329.329,0,0,0,.227-.091c1.6-1.512,2.931-2.824,4.469-4.5a1.81,1.81,0,0,0,.271.043h.026a.33.33,0,0,0,.258-.124c.305-.383.63-.8.975-1.236l.32-.408a1.738,1.738,0,0,0,1.294-.605,1.529,1.529,0,0,0,.3-.771,2.833,2.833,0,0,1,1.054-2.1.33.33,0,0,0-.164-.613h-.03c-.4,0-2.445.065-3.411,1.35a2.428,2.428,0,0,0-.476,1.3l-.416.326c-.438.344-.852.669-1.235.974a.33.33,0,0,0-.123.284,1.807,1.807,0,0,0,.043.272c-1.674,1.539-2.986,2.875-4.5,4.468a.33.33,0,0,0,.006.461l.873.873A.329.329,0,0,0,47.689,51.414Zm8.178-9.674A4.039,4.039,0,0,0,55.2,43.5l-.233-.051-.06-.273a.33.33,0,0,0-.252-.252l-.272-.06-.06-.272a.33.33,0,0,0-.14-.2A3.781,3.781,0,0,1,55.868,41.741ZM53.694,42.93l.027.006.06.273a.33.33,0,0,0,.252.252l.272.06.06.273a.33.33,0,0,0,.252.252l.272.06.02.093a1.22,1.22,0,0,1-.713.248l-.734-.734A1.832,1.832,0,0,1,53.694,42.93Zm-.9,1.576.3-.232.535.535L53.4,45.1c-.3.381-.584.744-.853,1.083a1.1,1.1,0,0,1-.829-.829C52.053,45.089,52.415,44.8,52.8,44.506Zm-1.434,1.642a1.758,1.758,0,0,0,.391.391c-1.39,1.5-2.625,2.721-4.058,4.084l-.418-.418C48.639,48.774,49.857,47.539,51.362,46.148Z" transform="translate(-45.182 -39.657)"/><path class="a" d="M23.069,6.821a3.322,3.322,0,0,0-2.762-2.227,1.73,1.73,0,0,0-.6.1l-.005,0a1.816,1.816,0,0,1-.517.134,1.7,1.7,0,0,1,.35-.338l.127-.1c.227-.184.51-.414,1.091-.889a1.838,1.838,0,0,0,.8-1.733,1.76,1.76,0,0,0-1-1.436A3.917,3.917,0,0,0,18.8,0a10.331,10.331,0,0,0-2.185.27l-.062.014a14.535,14.535,0,0,0-3.776,1.385A10.748,10.748,0,0,0,8.148,6.415a9.25,9.25,0,0,0-1.039,5.907,6.456,6.456,0,0,0,1.764,3.306A6.59,6.59,0,0,0,13.165,16.9a8.378,8.378,0,0,0,2.183-.275,14.514,14.514,0,0,0,5.635-3.018C24.108,10.483,23.483,7.821,23.069,6.821Zm-2.553,6.321a13.993,13.993,0,0,1-5.34,2.848,7.717,7.717,0,0,1-2.011.253A6.133,6.133,0,0,1,9.34,15.161c-1.19-1.19-2.851-3.872-.6-8.456C9.74,4.67,11.933,2.015,16.7.928l.063-.014A9.654,9.654,0,0,1,18.8.66c1.31,0,2.015.4,2.1,1.2l.008.046c.01.051.085.555-.572,1.092-.58.475-.862.7-1.089.888l-.115.093c-.523.4-.75.8-.637,1.137a.608.608,0,0,0,.647.385h0a2.284,2.284,0,0,0,.8-.18,1.073,1.073,0,0,1,.37-.063,2.678,2.678,0,0,1,2.152,1.82C22.822,7.951,23.36,10.3,20.516,13.142Z" transform="translate(-6.972 0)"/><path class="a" d="M82.427,89.181a.33.33,0,0,0,.447-.134,8.766,8.766,0,0,1,3.618-3.569.33.33,0,1,0-.315-.58,9.387,9.387,0,0,0-3.884,3.836A.331.331,0,0,0,82.427,89.181Z" transform="translate(-79.768 -82.056)"/><path class="a" d="M65.688,233.944a.329.329,0,0,0,.428-.186.33.33,0,0,0-.186-.428.329.329,0,0,0-.429.186h0a.33.33,0,0,0,.186.428Z" transform="translate(-63.547 -225.605)"/><path class="a" d="M77.279,412.472a2.813,2.813,0,0,1-.357-.167.9.9,0,0,1-.18-.126,4.447,4.447,0,0,1-.436-.507.331.331,0,0,0-.266-.134.33.33,0,0,0-.265.526,5.123,5.123,0,0,0,.5.582,1.5,1.5,0,0,0,.32.233,3.45,3.45,0,0,0,.443.208.33.33,0,0,0,.428-.186.33.33,0,0,0-.186-.428Z" transform="translate(-73.44 -397.951)"/><path class="a" d="M57.344,376.7h0a.33.33,0,0,0-.425-.193.33.33,0,0,0-.193.424h0a.33.33,0,1,0,.618-.231Z" transform="translate(-55.063 -364.058)"/><path class="a" d="M154.442,406.911h-.032a1.155,1.155,0,0,0-.034,2.31h.035a1.155,1.155,0,0,0,.031-2.31Zm-.031,1.65H154.4a.5.5,0,0,1,.013-.99h.014a.5.5,0,0,1-.013.99Z" transform="translate(-148.425 -393.477)"/><path class="a" d="M269.626,377.923h-.032a1.155,1.155,0,0,0-.034,2.31h.035a1.155,1.155,0,0,0,.031-2.31Zm-.031,1.65h-.015a.5.5,0,0,1,.013-.99h.014a.5.5,0,0,1-.013.99Z" transform="translate(-259.806 -365.447)"/><path class="a" d="M366.669,308.271a1.155,1.155,0,1,0,.163,1.626A1.158,1.158,0,0,0,366.669,308.271Zm-.348,1.208a.5.5,0,0,1-.384.182.488.488,0,0,1-.313-.112.5.5,0,0,1,.314-.878.49.49,0,0,1,.313.111A.5.5,0,0,1,366.322,309.479Z" transform="translate(-352.971 -297.842)"/><path class="a" d="M395.751,197.794a1.156,1.156,0,1,0,1.064.7A1.148,1.148,0,0,0,395.751,197.794Zm.46,1.341a.5.5,0,1,1,0-.379A.492.492,0,0,1,396.211,199.135Z" transform="translate(-381.799 -191.264)"/><path class="a" d="M298.288,178.5a1.155,1.155,0,1,0,.06,1.633A1.152,1.152,0,0,0,298.288,178.5Zm-.424,1.184a.5.5,0,0,1-.7.025.5.5,0,0,1-.026-.7.5.5,0,0,1,.7-.026A.5.5,0,0,1,297.864,179.685Z" transform="translate(-286.794 -172.309)"/><path class="a" d="M196.862,262.018a.33.33,0,0,0-.272.143,3.889,3.889,0,0,0-.719,1.508.99.99,0,1,0,1.981,0,3.889,3.889,0,0,0-.719-1.508A.33.33,0,0,0,196.862,262.018Zm0,1.981a.33.33,0,0,1-.33-.33,2.467,2.467,0,0,1,.33-.709,2.47,2.47,0,0,1,.33.709A.33.33,0,0,1,196.862,264Z" transform="translate(-189.636 -253.368)"/></g></g></svg>