<svg xmlns="http://www.w3.org/2000/svg" width="11.319" height="13.937" viewBox="0 0 11.319 13.937"><defs><style>.a{fill:#b5b5c3;}</style></defs><path class="a" d="M222.725,154.7a.326.326,0,0,0-.326.326V161.2a.326.326,0,0,0,.653,0V155.03A.326.326,0,0,0,222.725,154.7Zm0,0" transform="translate(-215.14 -149.654)"/><path class="a" d="M104.725,154.7a.326.326,0,0,0-.326.326V161.2a.326.326,0,0,0,.653,0V155.03A.326.326,0,0,0,104.725,154.7Zm0,0" transform="translate(-100.991 -149.654)"/><path class="a" d="M.924,4.148v8.041A1.8,1.8,0,0,0,1.4,13.431a1.607,1.607,0,0,0,1.166.5H8.744a1.607,1.607,0,0,0,1.166-.5,1.8,1.8,0,0,0,.479-1.242V4.148a1.247,1.247,0,0,0-.32-2.452H8.4V1.288A1.282,1.282,0,0,0,7.105,0h-2.9A1.282,1.282,0,0,0,2.915,1.288V1.7H1.244a1.247,1.247,0,0,0-.32,2.452Zm7.82,9.135H2.569a1.034,1.034,0,0,1-.992-1.093V4.176h8.16v8.013A1.034,1.034,0,0,1,8.744,13.283ZM3.568,1.288a.629.629,0,0,1,.64-.636h2.9a.629.629,0,0,1,.64.636V1.7H3.568ZM1.244,2.349h8.825a.587.587,0,0,1,0,1.175H1.244a.587.587,0,1,1,0-1.175Zm0,0" transform="translate(0.003 0.001)"/><path class="a" d="M163.725,154.7a.326.326,0,0,0-.326.326V161.2a.326.326,0,0,0,.653,0V155.03A.326.326,0,0,0,163.725,154.7Zm0,0" transform="translate(-158.065 -149.654)"/></svg>