<svg xmlns="http://www.w3.org/2000/svg" width="12.812" height="12.812" viewBox="0 0 12.812 12.812"><defs><style>.a{fill:#999;}</style></defs><path class="a" d="M36.149,36.812H24.663A.663.663,0,0,1,24,36.149V24.663A.663.663,0,0,1,24.663,24h4.86a.663.663,0,1,1,0,1.325h-4.2V35.486H35.486v-4.2a.663.663,0,1,1,1.325,0v4.86A.663.663,0,0,1,36.149,36.812Zm-1.1-11.044h-.937l-2.845,2.845a.663.663,0,1,0,.937.937L35.044,26.7Zm1.767,2.43V24.663A.663.663,0,0,0,36.149,24H32.615a.663.663,0,0,0,0,1.325h2.872V28.2a.663.663,0,1,0,1.325,0Z" transform="translate(-24 -24)"/></svg>