<svg xmlns="http://www.w3.org/2000/svg" width="40.606" height="47" viewBox="0 0 40.606 47"><defs><style>.a{fill:#030104;}</style></defs><g transform="translate(-1.378)"><path class="a" d="M21.6,38.014a3.975,3.975,0,1,1,3.975-3.975A3.974,3.974,0,0,1,21.6,38.014ZM17.05,27.893A2.006,2.006,0,1,0,15.044,29.9,2.005,2.005,0,0,0,17.05,27.893Zm12.713,0A2.006,2.006,0,1,0,27.757,29.9,2.005,2.005,0,0,0,29.763,27.893Zm.777,12.3c0,1.967-3.611,6.786-8.36,6.8h-.032c-4.731,0-8.335-4.049-8.335-6.078a1.535,1.535,0,0,1,.42-1.106,1.986,1.986,0,0,1,2.082-.285,19.291,19.291,0,0,0,6.048,1.055,9.678,9.678,0,0,0,5.227-1.3,2.977,2.977,0,0,1,1.549-.557A1.374,1.374,0,0,1,30.54,40.2Zm-2.414,1.057a11.951,11.951,0,0,1-5.763,1.306,21.249,21.249,0,0,1-6.354-1.051,5.683,5.683,0,0,0,.955,1.25,7.49,7.49,0,0,0,5.183,2.27v.983l.026-.983a7.033,7.033,0,0,0,4.775-2.27A7.883,7.883,0,0,0,28.126,41.253ZM35.248,16.91s-.151-.487-.431-1.282C33.585,12.119,33.133,0,21.134,0s-12.5,10.181-13.1,15.628a11.791,11.791,0,0,0-.081,1.282S19.631,24.895,35.248,16.91Zm2.876.633S33.768,21.82,21.6,22.149,5.244,17.544,5.244,17.544a3.864,3.864,0,1,0,0,7.727,63.775,63.775,0,0,1,32.877,0s3.864-1.73,3.864-3.864A3.859,3.859,0,0,0,38.123,17.544Z" transform="translate(0)"/></g></svg>