<svg xmlns="http://www.w3.org/2000/svg" width="47.96" height="55.512" viewBox="0 0 47.96 55.512"><g transform="translate(-1.378)"><path d="M25.265,44.9A4.695,4.695,0,1,1,29.96,40.2,4.693,4.693,0,0,1,25.265,44.9ZM19.888,32.945a2.369,2.369,0,1,0-2.369,2.369A2.368,2.368,0,0,0,19.888,32.945Zm15.015,0a2.369,2.369,0,1,0-2.369,2.369A2.368,2.368,0,0,0,34.9,32.945Zm.918,14.531c0,2.323-4.265,8.014-9.874,8.036h-.038c-5.588,0-9.844-4.782-9.844-7.179a1.813,1.813,0,0,1,.5-1.307,2.345,2.345,0,0,1,2.46-.337,22.785,22.785,0,0,0,7.143,1.246A11.431,11.431,0,0,0,32.337,46.4a3.516,3.516,0,0,1,1.83-.657A1.623,1.623,0,0,1,35.821,47.475ZM32.97,48.724a14.116,14.116,0,0,1-6.806,1.542,25.1,25.1,0,0,1-7.5-1.241A6.712,6.712,0,0,0,19.787,50.5a8.846,8.846,0,0,0,6.122,2.682v1.161l.03-1.161a8.307,8.307,0,0,0,5.64-2.682A9.311,9.311,0,0,0,32.97,48.724Zm8.412-28.751s-.178-.575-.509-1.515C39.418,14.314,38.883,0,24.712,0S9.948,12.024,9.244,18.458a13.926,13.926,0,0,0-.1,1.515S22.937,29.4,41.381,19.973Zm3.4.748s-5.144,5.051-19.516,5.44-19.318-5.44-19.318-5.44a4.563,4.563,0,1,0,0,9.126,75.325,75.325,0,0,1,38.831,0s4.563-2.043,4.563-4.563A4.558,4.558,0,0,0,44.778,20.721Z" transform="translate(0)"/></g></svg>