<svg xmlns="http://www.w3.org/2000/svg" width="32.197" height="37.267" viewBox="0 0 32.197 37.267"><defs><style>.a{fill:#030104;}</style></defs><g transform="translate(-1.378)"><path class="a" d="M17.414,30.142a3.152,3.152,0,1,1,3.152-3.152A3.151,3.151,0,0,1,17.414,30.142ZM13.8,22.117a1.591,1.591,0,1,0-1.591,1.591A1.59,1.59,0,0,0,13.8,22.117Zm10.08,0a1.591,1.591,0,1,0-1.591,1.591A1.59,1.59,0,0,0,23.885,22.117Zm.616,9.755c0,1.559-2.863,5.38-6.629,5.4h-.026c-3.751,0-6.609-3.211-6.609-4.819a1.217,1.217,0,0,1,.333-.877,1.574,1.574,0,0,1,1.651-.226,15.3,15.3,0,0,0,4.8.837,7.674,7.674,0,0,0,4.145-1.032,2.36,2.36,0,0,1,1.228-.441A1.089,1.089,0,0,1,24.5,31.872Zm-1.914.838a9.476,9.476,0,0,1-4.569,1.035,16.848,16.848,0,0,1-5.038-.833,4.506,4.506,0,0,0,.758.991,5.939,5.939,0,0,0,4.11,1.8v.78l.02-.78a5.577,5.577,0,0,0,3.786-1.8A6.251,6.251,0,0,0,22.587,32.71Zm5.647-19.3s-.12-.386-.342-1.017C26.915,9.61,26.557,0,17.043,0S7.132,8.072,6.659,12.392a9.349,9.349,0,0,0-.064,1.017S15.851,19.74,28.234,13.409Zm2.28.5s-3.453,3.391-13.1,3.652S4.443,13.911,4.443,13.911a3.063,3.063,0,1,0,0,6.127,50.568,50.568,0,0,1,26.069,0s3.063-1.372,3.063-3.063A3.06,3.06,0,0,0,30.514,13.911Z" transform="translate(0)"/></g></svg>