<svg xmlns="http://www.w3.org/2000/svg" width="20" height="20" viewBox="0 0 20 20"><defs><style>.a{fill:#fff;stroke:#707070;opacity:0;}.b{stroke:none;}.c{fill:none;}</style></defs><g transform="translate(-286.174 -322)"><g class="a" transform="translate(286.174 322)"><rect class="b" width="20" height="20"/><rect class="c" x="0.5" y="0.5" width="19" height="19"/></g><g transform="translate(287.707 323.018)"><g transform="translate(0 5.695)"><g transform="translate(0)"><path d="M31.62,153.6H28.456a.633.633,0,1,0,0,1.266H31.62a.633.633,0,0,1,.633.633v8.227a.633.633,0,0,1-.633.633H18.964a.633.633,0,0,1-.633-.633v-8.227a.633.633,0,0,1,.633-.633h3.164a.633.633,0,0,0,0-1.266H18.964a1.9,1.9,0,0,0-1.9,1.9v8.227a1.9,1.9,0,0,0,1.9,1.9H31.62a1.9,1.9,0,0,0,1.9-1.9v-8.227A1.9,1.9,0,0,0,31.62,153.6Z" transform="translate(-17.065 -153.595)"/></g></g><g transform="translate(4.438 0)"><g transform="translate(0 0)"><path d="M144.142,3.349,140.978.185a.633.633,0,0,0-.895,0l-3.164,3.164a.633.633,0,0,0,.895.895L139.9,2.16v10.5a.633.633,0,1,0,1.266,0V2.16l2.084,2.084a.633.633,0,0,0,.895-.895Z" transform="translate(-136.741 0)"/></g></g></g></g></svg>