<svg xmlns="http://www.w3.org/2000/svg" width="50" height="48" viewBox="0 0 50 48"><defs><style>.a{fill:#f4f4f4;}.b{fill:#d0d0d0;}</style></defs><g transform="translate(-1104 -372)"><rect class="a" width="8" height="8" transform="translate(1104 372)"/><rect class="a" width="8" height="8" transform="translate(1134 372)"/><rect class="a" width="7" height="8" transform="translate(1120 372)"/><rect class="a" width="4" height="8" transform="translate(1150 372)"/><rect class="b" width="8" height="8" transform="translate(1112 372)"/><rect class="b" width="8" height="8" transform="translate(1142 372)"/><rect class="b" width="8" height="8" transform="translate(1127 372)"/><g transform="translate(0 16)"><rect class="a" width="8" height="8" transform="translate(1104 372)"/><rect class="a" width="8" height="8" transform="translate(1134 372)"/><rect class="a" width="7" height="8" transform="translate(1120 372)"/><rect class="a" width="4" height="8" transform="translate(1150 372)"/><rect class="b" width="8" height="8" transform="translate(1112 372)"/><rect class="b" width="8" height="8" transform="translate(1142 372)"/><rect class="b" width="8" height="8" transform="translate(1127 372)"/></g><g transform="translate(0 32)"><rect class="a" width="8" height="8" transform="translate(1104 372)"/><rect class="a" width="8" height="8" transform="translate(1134 372)"/><rect class="a" width="7" height="8" transform="translate(1120 372)"/><rect class="a" width="4" height="8" transform="translate(1150 372)"/><rect class="b" width="8" height="8" transform="translate(1112 372)"/><rect class="b" width="8" height="8" transform="translate(1142 372)"/><rect class="b" width="8" height="8" transform="translate(1127 372)"/></g><g transform="translate(0 8)"><path class="b" d="M0,0H8V8H0Z" transform="translate(1104 372)"/><path class="b" d="M0,0H8V8H0Z" transform="translate(1134 372)"/><path class="b" d="M0,0H7V8H0Z" transform="translate(1120 372)"/><path class="b" d="M0,0H4V8H0Z" transform="translate(1150 372)"/><rect class="a" width="8" height="8" transform="translate(1112 372)"/><path class="a" d="M0,0H8V8H0Z" transform="translate(1142 372)"/><path class="a" d="M0,0H8V8H0Z" transform="translate(1127 372)"/></g><g transform="translate(0 24)"><path class="b" d="M0,0H8V8H0Z" transform="translate(1104 372)"/><path class="b" d="M0,0H8V8H0Z" transform="translate(1134 372)"/><path class="b" d="M0,0H7V8H0Z" transform="translate(1120 372)"/><path class="b" d="M0,0H4V8H0Z" transform="translate(1150 372)"/><rect class="a" width="8" height="8" transform="translate(1112 372)"/><path class="a" d="M0,0H8V8H0Z" transform="translate(1142 372)"/><path class="a" d="M0,0H8V8H0Z" transform="translate(1127 372)"/></g><g transform="translate(0 40)"><path class="b" d="M0,0H8V8H0Z" transform="translate(1104 372)"/><path class="b" d="M0,0H8V8H0Z" transform="translate(1134 372)"/><path class="b" d="M0,0H7V8H0Z" transform="translate(1120 372)"/><path class="b" d="M0,0H4V8H0Z" transform="translate(1150 372)"/><rect class="a" width="8" height="8" transform="translate(1112 372)"/><path class="a" d="M0,0H8V8H0Z" transform="translate(1142 372)"/><path class="a" d="M0,0H8V8H0Z" transform="translate(1127 372)"/></g></g></svg>