<svg xmlns="http://www.w3.org/2000/svg" width="40" height="38" viewBox="0 0 40 38"><defs><style>.a{fill:#f3f6f9;opacity:0;}.b{fill:#464e5f;}</style></defs><g transform="translate(-167 -25)"><rect class="a" width="40" height="38" rx="6" transform="translate(167 25)"/><g transform="translate(192 53) rotate(180)"><g transform="translate(-126.513 18) rotate(-90)"><g transform="translate(0 126.513)"><path class="b" d="M17.795,126.717a.709.709,0,0,0-.994,0l-7.3,7.2a.71.71,0,0,1-.995,0l-7.3-7.2a.709.709,0,0,0-.994,0,.689.689,0,0,0,0,.983l7.3,7.2a2.129,2.129,0,0,0,2.983,0l7.3-7.2A.689.689,0,0,0,17.795,126.717Z" transform="translate(0 -126.513)"/></g></g></g></g></svg>