<svg xmlns="http://www.w3.org/2000/svg" width="35" height="35" viewBox="0 0 35 35"><defs><style>.a{fill:#fff;stroke:#707070;opacity:0;}.b{fill:#3699ff;}.c{stroke:none;}.d{fill:none;}</style></defs><g transform="translate(-59 -22)"><g class="a" transform="translate(59 22)"><rect class="c" width="35" height="35"/><rect class="d" x="0.5" y="0.5" width="34" height="34"/></g><g transform="translate(66 32)"><path class="b" d="M20.459,124.447H.89a.89.89,0,0,1,0-1.779H20.459a.89.89,0,0,1,0,1.779Zm0,0" transform="translate(0 -115.848)"/><path class="b" d="M20.459,1.779H.89A.89.89,0,0,1,.89,0H20.459a.89.89,0,0,1,0,1.779Zm0,0"/><path class="b" d="M20.459,247.111H.89a.89.89,0,0,1,0-1.779H20.459a.89.89,0,0,1,0,1.779Zm0,0" transform="translate(0 -231.693)"/></g></g></svg>