<svg xmlns="http://www.w3.org/2000/svg" width="22" height="22" viewBox="0 0 22 22"><defs><style>.a{fill:#2786fb;}.b{fill:#fff;stroke:#707070;opacity:0;}.c{stroke:none;}.d{fill:none;}</style></defs><g transform="translate(-323.97 -628.556)"><path class="a" d="M334.216,649.84a.964.964,0,0,1-.954-.807l-.278-1.668-.193-.06c-.234-.073-.463-.156-.685-.247s-.437-.191-.642-.3l-.179-.094-1.393.992a.948.948,0,0,1-.558.179.96.96,0,0,1-.682-.284l-.695-.7-.608-.608a.96.96,0,0,1-.1-1.244l.981-1.364-.1-.18a7.858,7.858,0,0,1-.356-.755q-.123-.3-.219-.609l-.06-.192-1.685-.287a.964.964,0,0,1-.807-.954v-1.842a.964.964,0,0,1,.807-.954l1.653-.279.059-.2q.108-.359.248-.7c.093-.229.2-.453.31-.669l.093-.179-.992-1.393a.965.965,0,0,1,.1-1.245l.633-.631.674-.672a.965.965,0,0,1,1.243-.106l1.369.986.181-.1q.327-.176.67-.32c.228-.1.46-.181.695-.254l.192-.06.287-1.685a.965.965,0,0,1,.954-.807h1.842a.964.964,0,0,1,.954.807l.279,1.654.2.058c.24.072.479.157.716.254s.472.208.7.329l.179.095,1.381-.983a.945.945,0,0,1,.558-.18.96.96,0,0,1,.682.284l.58.58.724.724a.96.96,0,0,1,.1,1.244l-.983,1.376.095.179q.162.306.3.629.152.362.27.74l.06.192,1.668.283a.947.947,0,0,1,.8.949v1.846a.964.964,0,0,1-.807.954l-1.67.278-.059.2c-.057.189-.124.38-.2.571a8.335,8.335,0,0,1-.367.8l-.093.179.983,1.38a.964.964,0,0,1-.1,1.244l-.574.574-.729.73a.964.964,0,0,1-1.243.105l-1.377-.985-.179.1c-.2.106-.408.2-.62.294-.244.1-.495.194-.75.273l-.193.06-.283,1.668a.964.964,0,0,1-.954.807h-1.846Zm-2.94-3.735a.277.277,0,0,1,.135.035,7.662,7.662,0,0,0,.917.449,7.462,7.462,0,0,0,.956.319.261.261,0,0,1,.192.21l.306,1.836a.439.439,0,0,0,.437.37h1.842a.44.44,0,0,0,.438-.375l.31-1.833a.256.256,0,0,1,.189-.209,7.43,7.43,0,0,0,1.039-.351,7.234,7.234,0,0,0,.882-.446.268.268,0,0,1,.136-.037.255.255,0,0,1,.148.047l1.517,1.08a.441.441,0,0,0,.572-.046l1.3-1.3a.449.449,0,0,0,.05-.568l-1.082-1.525a.264.264,0,0,1-.011-.287,7.137,7.137,0,0,0,.459-.914,7.378,7.378,0,0,0,.337-1,.261.261,0,0,1,.21-.192l1.836-.306a.431.431,0,0,0,.227-.109h.143l0-.328v-1.842a.441.441,0,0,0-.374-.438l-1.832-.31a.256.256,0,0,1-.209-.189,7.45,7.45,0,0,0-.341-1.015,7.174,7.174,0,0,0-.457-.906.264.264,0,0,1,.011-.283l1.087-1.527,0-.008a.446.446,0,0,0-.058-.555l-1.3-1.3a.443.443,0,0,0-.315-.131.448.448,0,0,0-.236.07l-.011.007-1.52,1.092a.263.263,0,0,1-.15.047.27.27,0,0,1-.135-.037,7.445,7.445,0,0,0-1.963-.805.264.264,0,0,1-.194-.214l-.306-1.823a.439.439,0,0,0-.437-.37h-1.842a.44.44,0,0,0-.438.375l-.314,1.845a.271.271,0,0,1-.2.211,7.053,7.053,0,0,0-.976.33,7.408,7.408,0,0,0-.934.474.272.272,0,0,1-.29-.013l-1.505-1.074a.442.442,0,0,0-.574.047l-1.3,1.3a.449.449,0,0,0-.05.57l1.09,1.532a.259.259,0,0,1,.015.283,7.144,7.144,0,0,0-.457.927,7.475,7.475,0,0,0-.326,1,.266.266,0,0,1-.214.194l-1.823.306a.439.439,0,0,0-.37.437v1.842a.44.44,0,0,0,.374.438l1.845.314a.271.271,0,0,1,.212.2,7.031,7.031,0,0,0,.242.757,7.362,7.362,0,0,0,.563,1.153.269.269,0,0,1-.013.29l-1.08,1.514,0,.007a.444.444,0,0,0,.057.557l1.3,1.3a.443.443,0,0,0,.315.131.451.451,0,0,0,.235-.069l.01-.007,1.546-1.1A.249.249,0,0,1,331.276,646.1Z"/><path class="a" d="M342.528,651.265a4.191,4.191,0,1,1,4.19-4.19A4.2,4.2,0,0,1,342.528,651.265Zm0-7.856a3.666,3.666,0,1,0,3.665,3.666A3.67,3.67,0,0,0,342.528,643.409Z" transform="translate(-7.385 -7.379)"/></g><g class="b"><rect class="c" width="22" height="22"/><rect class="d" x="0.5" y="0.5" width="21" height="21"/></g></svg>