<svg xmlns="http://www.w3.org/2000/svg" width="22" height="22" viewBox="0 0 22 22"><defs><style>.a{fill:#fff;stroke:#707070;opacity:0;}.b,.d{fill:none;}.b{stroke:#2786fb;stroke-miterlimit:10;stroke-width:0.7px;}.c{stroke:none;}</style></defs><g class="a"><rect class="c" width="22" height="22"/><rect class="d" x="0.5" y="0.5" width="21" height="21"/></g><g transform="translate(-678 -665.004)"><path class="b" d="M719.163,704.655v1.136H705.408v-1.136a.844.844,0,0,1,.2-.549l1.766-2.06a.843.843,0,0,0,.2-.549v-4.292a4.705,4.705,0,0,1,4.706-4.706h0a4.706,4.706,0,0,1,4.706,4.706V701.5a.843.843,0,0,0,.2.549l1.766,2.06A.843.843,0,0,1,719.163,704.655Z" transform="translate(-23.561 -23.182)"/><path class="b" d="M777.072,891.4c0,.646-.873,1.17-1.951,1.17s-1.951-.524-1.951-1.17" transform="translate(-86.397 -207.623)"/><path class="b" d="M680,671.5a4,4,0,0,1,4-4" transform="translate(0)"/><path class="b" d="M705,694.681a2.181,2.181,0,0,1,2.181-2.181" transform="translate(-23.182 -23.182)"/><path class="b" d="M865,667.5a4,4,0,0,1,4,4" transform="translate(-171.55)"/><path class="b" d="M865,692.5a2.181,2.181,0,0,1,2.181,2.181" transform="translate(-171.55 -23.182)"/><circle class="b" cx="0.909" cy="0.909" r="0.909" transform="translate(687.816 667.5)"/></g></svg>