<svg xmlns="http://www.w3.org/2000/svg" width="13.824" height="13.825" viewBox="0 0 13.824 13.825"><defs><style>.a{fill:#b5b5c3;}</style></defs><path class="a" d="M13.513,1.649l-.268-.268a.2.2,0,0,0-.286.286l.268.268a.7.7,0,0,1,0,.985l-.369.369L10.546.978l.369-.369a.7.7,0,0,1,.985,0L12.292,1a.2.2,0,1,0,.286-.286L12.187.323a1.1,1.1,0,0,0-1.558,0L2.514,8.438a.2.2,0,1,0,.286.286L9.367,2.157,10.38,3.17,2.052,11.5l-.662-.3a.107.107,0,0,1-.054-.054l-.3-.662,1.1-1.1A.2.2,0,0,0,1.849,9.1L.65,10.3a.376.376,0,0,0-.072.2L.017,13.432a.33.33,0,0,0,.386.386l3.03-.581a.218.218,0,0,0,.1-.051l9.98-9.98a1.1,1.1,0,0,0,0-1.558ZM.577,12.666l.011-.057.639.639h0L.436,13.4Zm1.131.491L.68,12.129l.2-1.02.092.2a.512.512,0,0,0,.257.257l.719.323.323.719a.512.512,0,0,0,.257.257l.2.092ZM3.351,12.8l-.662-.3a.107.107,0,0,1-.054-.054l-.3-.662,8.328-8.328,1.013,1.013Zm8.615-8.615L9.653,1.871l.606-.606,2.312,2.312Z" transform="translate(-0.011 0)"/></svg>