<svg xmlns="http://www.w3.org/2000/svg" width="19.679" height="19.152" viewBox="0 0 19.679 19.152"><defs><style>.a{fill:#464e5f;}</style></defs><g transform="translate(0 -6.028)"><g transform="translate(0 6.028)"><g transform="translate(0 0)"><path class="a" d="M99.12,350.322a2.467,2.467,0,1,0,2.467,2.467A2.467,2.467,0,0,0,99.12,350.322Zm0,3.837a1.37,1.37,0,1,1,1.37-1.37A1.37,1.37,0,0,1,99.12,354.159Z" transform="translate(-92.654 -336.103)"/><path class="a" d="M297.651,350.322a2.467,2.467,0,1,0,2.467,2.467A2.467,2.467,0,0,0,297.651,350.322Zm0,3.837a1.37,1.37,0,1,1,1.37-1.37A1.37,1.37,0,0,1,297.651,354.159Z" transform="translate(-283.647 -336.103)"/><path class="a" d="M19.586,8.857a.589.589,0,0,0-.365-.169L4.36,8.5,3.949,7.337A2.093,2.093,0,0,0,1.986,6.028H.457a.423.423,0,1,0,0,.844H1.986a1.182,1.182,0,0,1,1.1.739l2.9,8.084-.228.485a1.9,1.9,0,0,0,.205,1.836A2.167,2.167,0,0,0,7.67,18.9h8.88a.423.423,0,1,0,0-.844H7.67a1.186,1.186,0,0,1-.959-.507A1.085,1.085,0,0,1,6.6,16.54l.183-.38,9.61-.929a2.454,2.454,0,0,0,2.169-1.773l1.1-4.243A.338.338,0,0,0,19.586,8.857Zm-1.917,4.412a1.519,1.519,0,0,1-1.392,1.119l-9.5.908L4.657,9.342l13.993.19Z" transform="translate(0 -6.028)"/></g></g></g></svg>