<svg xmlns="http://www.w3.org/2000/svg" width="21" height="19.033" viewBox="0 0 21 19.033"><defs><style>.a{fill:#464e5f;}</style></defs><g transform="translate(0 -19.089)"><g transform="translate(0 19.089)"><path class="a" d="M20.887,24.184l-.015-.015-4.335-3.853a.412.412,0,0,0-.136-.082l-3.136-1.121a.412.412,0,0,0-.552.367,2.231,2.231,0,0,1-4.463,0,.412.412,0,0,0-.548-.367L4.57,20.247a.412.412,0,0,0-.136.082L.128,24.169a.412.412,0,0,0-.015.583l.015.015,3.428,3.465V37.71a.412.412,0,0,0,.412.412H17.031a.412.412,0,0,0,.412-.412V28.232l3.428-3.465A.412.412,0,0,0,20.887,24.184Zm-3.456,2.874V25.146a.412.412,0,1,0-.824,0V37.277H4.364V25.146a.412.412,0,0,0-.824,0v1.916L1.006,24.495l3.923-3.511,2.58-.931a3.037,3.037,0,0,0,5.963,0l2.58.931,3.911,3.511Z" transform="translate(0 -19.089)"/></g></g></svg>