<svg xmlns="http://www.w3.org/2000/svg" width="16.454" height="17.72" viewBox="0 0 16.454 17.72"><g transform="translate(0 5.695)"><g transform="translate(0)"><path d="M31.62,153.6H28.456a.633.633,0,1,0,0,1.266H31.62a.633.633,0,0,1,.633.633v8.227a.633.633,0,0,1-.633.633H18.964a.633.633,0,0,1-.633-.633v-8.227a.633.633,0,0,1,.633-.633h3.164a.633.633,0,0,0,0-1.266H18.964a1.9,1.9,0,0,0-1.9,1.9v8.227a1.9,1.9,0,0,0,1.9,1.9H31.62a1.9,1.9,0,0,0,1.9-1.9v-8.227A1.9,1.9,0,0,0,31.62,153.6Z" transform="translate(-17.065 -153.595)"/></g></g><g transform="translate(4.438 0)"><g transform="translate(0 0)"><path d="M144.142,3.349,140.978.185a.633.633,0,0,0-.895,0l-3.164,3.164a.633.633,0,0,0,.895.895L139.9,2.16v10.5a.633.633,0,1,0,1.266,0V2.16l2.084,2.084a.633.633,0,0,0,.895-.895Z" transform="translate(-136.741 0)"/></g></g></svg>